<?xml version="1.0" encoding="utf-8"?>
<!-- Generator: Adobe Illustrator 19.0.0, SVG Export Plug-In . SVG Version: 6.00 Build 0)  -->
<svg version="1.1" id="Layer_1" xmlns="http://www.w3.org/2000/svg" xmlns:xlink="http://www.w3.org/1999/xlink" x="0px" y="0px"
	 viewBox="194 -104 1000 1000" style="enable-background:new 194 -104 1000 1000;" xml:space="preserve">
<g>
	<g>
		<path d="M907.7-73c33.6,0,66,6.3,97.3,19c31.3,12.6,59.3,31.3,83.9,56c24.8,24.7,43.4,52.5,56.1,83.8c12.7,31.2,19,63.6,19,97.1
			c0,33.3-6.4,65.7-19.2,97.1c-12.8,31.4-31.5,59.3-55.9,83.8L960.8,491.6c-2.5,2.5-6.1,5.8-11,10.3c-23.8,21.1-50.5,37.1-79.8,48.1
			c-29.4,11-59.6,16.5-90.5,16.5c-39,0-75.8-8.3-110.5-25c-26-12.3-49.6-28.9-70.8-50C577,470.6,560.4,447,548.1,421
			c16.7-16.7,36.8-25,60.4-25c8.3,0,16.6,1.2,25,3.6c14.5,23.4,33.4,42.2,56.8,56.7c27.3,16.7,57.1,25,89.1,25
			c22.3,0,43.8-4.2,64.8-12.6c20.9-8.4,39.6-20.9,56.1-37.3l128.2-127.9c16.5-16.5,29-35.1,37.4-56s12.7-42.4,12.7-64.6
			c0-22.2-4.2-43.7-12.7-64.6s-20.9-39.5-37.4-56c-16.5-16.5-35.2-28.9-56.1-37.3s-42.5-12.6-64.8-12.6s-43.8,4.2-64.8,12.6
			s-39.6,20.9-56.1,37.3L697,151.8c-28.5-7.8-57.9-11.7-88.5-11.7c-4.9,0-11.8,0.2-20.7,0.7c4.4-4.9,7.9-8.5,10.4-11L726.4,1.9
			c24.5-24.4,52.5-43.1,83.9-55.8C841.8-66.6,874.3-73,907.7-73L907.7-73z M608.5,225.4c39,0,75.8,8.3,110.5,25
			c26,12.3,49.6,28.9,70.8,50c21.1,21.1,37.8,44.6,50.1,70.6c-16.7,16.7-36.8,25-60.4,25c-8.3,0-16.6-1.2-25-3.6
			c-14.5-23.4-33.4-42.2-56.8-56.7c-27.3-16.7-57.1-25-89.1-25c-22.3,0-43.8,4.2-64.8,12.6c-20.9,8.4-39.6,20.9-56.1,37.3
			L359.5,488.6c-16.5,16.5-29,35.1-37.4,56c-8.4,20.9-12.7,42.4-12.7,64.6c0,22.2,4.2,43.7,12.7,64.6c8.4,20.9,20.9,39.5,37.4,56
			c16.5,16.5,35.2,28.9,56.1,37.3c20.9,8.4,42.5,12.6,64.8,12.6c22.3,0,43.8-4.2,64.8-12.6s39.6-20.9,56.1-37.3l89.8-89.6
			c28.5,7.8,57.9,11.7,88.5,11.7c4.9,0,11.8-0.2,20.7-0.7c-4.4,4.9-7.9,8.5-10.4,11L661.6,790.1c-24.8,24.7-52.7,43.3-83.9,56
			c-31.3,12.6-63.7,19-97.3,19c-33.4,0-65.8-6.4-97.3-19.1c-31.5-12.7-59.5-31.4-83.9-55.8c-24.8-24.7-43.4-52.5-56.1-83.8
			c-12.8-31.2-19.1-63.6-19.1-97.2c0-33.5,6.3-65.9,19-97.1s31.4-59.2,56.1-83.8l128.2-127.9c2.5-2.5,6.1-5.8,11-10.3
			C462,269.1,488.6,253,518,242C547.4,231,577.6,225.4,608.5,225.4L608.5,225.4z"/>
	</g>
</g>
</svg>
